<?xml version="1.0" encoding="UTF-8" standalone="no"?>
<!-- Created with Inkscape (http://www.inkscape.org/) -->

<svg
   xmlns:dc="http://purl.org/dc/elements/1.1/"
   xmlns:cc="http://creativecommons.org/ns#"
   xmlns:rdf="http://www.w3.org/1999/02/22-rdf-syntax-ns#"
   xmlns:svg="http://www.w3.org/2000/svg"
   xmlns="http://www.w3.org/2000/svg"
   xmlns:sodipodi="http://sodipodi.sourceforge.net/DTD/sodipodi-0.dtd"
   xmlns:inkscape="http://www.inkscape.org/namespaces/inkscape"
   width="210mm"
   height="297mm"
   viewBox="0 0 210 297"
   version="1.1"
   id="svg8"
   inkscape:version="0.92.4 (5da689c313, 2019-01-14)"
   sodipodi:docname="kingslayer.svg">
  <defs
     id="defs2" />
  <sodipodi:namedview
     id="base"
     pagecolor="#ffffff"
     bordercolor="#666666"
     borderopacity="1.0"
     inkscape:pageopacity="0.0"
     inkscape:pageshadow="2"
     inkscape:zoom="0.6058221"
     inkscape:cx="461.67138"
     inkscape:cy="1825.8158"
     inkscape:document-units="mm"
     inkscape:current-layer="layer2"
     showgrid="false"
     inkscape:window-width="1920"
     inkscape:window-height="1027"
     inkscape:window-x="-8"
     inkscape:window-y="-8"
     inkscape:window-maximized="1" />
  <metadata
     id="metadata5">
    <rdf:RDF>
      <cc:Work
         rdf:about="">
        <dc:format>image/svg+xml</dc:format>
        <dc:type
           rdf:resource="http://purl.org/dc/dcmitype/StillImage" />
        <dc:title></dc:title>
      </cc:Work>
    </rdf:RDF>
  </metadata>
  <g
     inkscape:label="Layer 1"
     inkscape:groupmode="layer"
     id="layer1"
     style="display:inline">
    <path
       style="fill:none;stroke:#000000;stroke-width:0.16864522;stroke-linecap:butt;stroke-linejoin:miter;stroke-miterlimit:4;stroke-dasharray:none;stroke-opacity:1"
       d="M 40.05,-62.38691 V 318.16667"
       id="path4527"
       inkscape:connector-curvature="0" />
    <path
       style="fill:none;stroke:#ff0000;stroke-width:0.37791499;stroke-miterlimit:4;stroke-dasharray:none;stroke-opacity:1"
       d="M 0.18945312,366.80273 V 668.78711 H 37.982422 v -18.52149 h 37.419922 v 18.52149 h 38.169926 v -18.52149 h 37.41992 v 18.52149 h 38.17187 v -18.52149 h 37.41992 v 18.52149 h 38.17188 v -18.52149 h 37.41992 v 18.52149 h 38.16992 v -18.52149 h 37.41992 v 18.52149 h 38.17188 v -18.52149 h 37.41992 v 18.52149 h 38.16797 v -18.52149 h 37.41992 v -0.74804 h -18.52148 v -37.41992 h 18.52148 v -38.17188 h -18.52148 v -37.41992 h 18.52148 v -38.16992 h -18.52148 v -37.41992 h 18.52148 v -38.17188 h -18.52148 v -37.41992 h -18.89844 v -18.52149 h -38.16797 v 18.52149 H 415.9375 v -18.52149 h -38.17188 v 18.52149 H 340.3457 v -18.52149 h -38.16992 v 18.52149 h -37.41992 v -18.52149 h -38.17188 v 18.52149 h -37.41992 v -18.52149 h -38.17187 v 18.52149 H 113.57227 V 366.80273 H 75.402344 v 18.52149 H 37.982422 v -18.52149 z m 0.001953,18.14258 H 18.712891 v 37.41992 H 0.19140625 Z m 0,75.5918 H 18.712891 v 37.41992 H 0.19140625 Z M 151.18164,501.00195 a 16.792712,16.792714 0 0 1 16.79297,16.79297 16.792712,16.792714 0 0 1 -16.79297,16.79297 16.792712,16.792714 0 0 1 -16.79297,-16.79297 16.792712,16.792714 0 0 1 16.79297,-16.79297 z M 0.19140625,536.12695 H 18.712891 v 37.41993 H 0.19140625 Z m 0,75.5918 H 18.712891 v 37.41992 H 0.19140625 Z"
       transform="scale(0.26458333)"
       id="rect3713-1"
       inkscape:connector-curvature="0" />
    <path
       style="fill:none;stroke:#ff0000;stroke-width:0.37791499;stroke-miterlimit:4;stroke-dasharray:none;stroke-opacity:1"
       d="M 0.18945312 45.542969 L 0.18945312 64.443359 L 18.710938 64.443359 L 18.710938 101.86328 L 0.18945312 101.86328 L 0.18945312 140.0332 L 18.710938 140.0332 L 18.710938 177.45312 L 0.18945312 177.45312 L 0.18945312 215.625 L 18.710938 215.625 L 18.710938 253.04492 L 0.18945312 253.04492 L 0.18945312 291.21289 L 18.710938 291.21289 L 18.710938 328.63281 L 0.18945312 328.63281 L 0.18945312 347.52734 L 37.982422 347.52734 L 37.982422 329.00586 L 75.402344 329.00586 L 75.402344 347.52734 L 113.57227 347.52734 L 113.57227 329.00586 L 150.99219 329.00586 L 150.99219 347.52734 L 188.97656 347.52734 L 188.97656 45.542969 L 150.99219 45.542969 L 150.99219 64.064453 L 113.57227 64.064453 L 113.57227 45.542969 L 75.402344 45.542969 L 75.402344 64.064453 L 37.982422 64.064453 L 37.982422 45.542969 L 0.18945312 45.542969 z M 151.18164 179.74219 C 160.4562 179.74205 167.97475 187.2606 167.97461 196.53516 C 167.97475 205.80972 160.4562 213.32826 151.18164 213.32812 C 141.90708 213.32827 134.38853 205.80972 134.38867 196.53516 C 134.38853 187.2606 141.90708 179.74204 151.18164 179.74219 z "
       transform="scale(0.26458333)"
       id="rect3713-1-7" />
    <path
       style="fill:none;stroke:#ff0000;stroke-width:0.37795275;stroke-miterlimit:4;stroke-dasharray:none;stroke-opacity:1"
       d="M 245.4668 45.529297 L 245.4668 64.0625 L 226.94531 64.0625 L 226.94531 102.23438 L 245.4668 102.23438 L 245.4668 139.6543 L 226.94531 139.6543 L 226.94531 177.82422 L 245.4668 177.82422 L 245.4668 215.24414 L 226.94531 215.24414 L 226.94531 253.41602 L 245.4668 253.41602 L 245.4668 290.83594 L 226.94531 290.83594 L 226.94531 329.00391 L 245.4668 329.00391 L 245.4668 347.54297 L 264.76562 347.54297 L 264.76562 329.02148 L 302.18555 329.02148 L 302.18555 347.54297 L 340.35742 347.54297 L 340.35742 329.02148 L 377.77734 329.02148 L 377.77734 347.54297 L 415.94922 347.54297 L 415.94922 329.02148 L 453.36914 329.02148 L 453.36914 347.54297 L 491.53906 347.54297 L 491.53906 329.02148 L 528.95898 329.02148 L 528.95898 347.54297 L 567.13086 347.54297 L 567.13086 329.02148 L 586.0293 329.02148 L 586.0293 329.00586 L 604.55078 329.00586 L 604.55078 290.83398 L 586.0293 290.83398 L 586.0293 253.41406 L 604.55078 253.41406 L 604.55078 215.24414 L 586.0293 215.24414 L 586.0293 177.82422 L 604.55078 177.82422 L 604.55078 139.65625 L 586.0293 139.65625 L 586.0293 102.23633 L 604.55078 102.23633 L 604.55078 64.064453 L 586.0293 64.064453 L 567.13086 64.064453 L 567.13086 45.542969 L 586.0293 45.542969 L 586.0293 45.529297 L 245.4668 45.529297 z M 264.76562 45.542969 L 302.18555 45.542969 L 302.18555 64.064453 L 264.76562 64.064453 L 264.76562 45.542969 z M 340.35742 45.542969 L 377.77734 45.542969 L 377.77734 64.064453 L 340.35742 64.064453 L 340.35742 45.542969 z M 415.94922 45.542969 L 453.36914 45.542969 L 453.36914 64.064453 L 415.94922 64.064453 L 415.94922 45.542969 z M 491.53906 45.542969 L 528.95898 45.542969 L 528.95898 64.064453 L 491.53906 64.064453 L 491.53906 45.542969 z "
       transform="scale(0.26458333)"
       id="rect4866" />
    <path
       inkscape:connector-curvature="0"
       style="fill:none;stroke:#000000;stroke-width:0.09927534;stroke-miterlimit:4;stroke-dasharray:none;stroke-opacity:1"
       d="m -57.087613,17.048796 h -4.90048 v 9.900679 h 4.90048 z m 0,19.999809 h -4.90048 v 9.90069 h 4.90048 z m 0,20.000331 h -4.90048 v 9.90069 h 4.90048 z m 0,20.00033 h -4.90048 v 9.90069 h 4.90048 z m 0,19.99981 h -4.90048 v 9.900694 h 4.90048 z m 0,20.000334 h -4.90048 v 9.90067 h 4.90048 z m 0,19.99929 h -4.90048 v 9.90069 h 4.90048 z m 0,19.99981 h -4.90048 v 9.90069 h 4.90048 z m 0,20.00033 h -4.90048 v 9.90069 h 4.90048 z m 0,20.00034 h -4.90048 v 9.90069 h 4.90048 z m 0,19.9998 h -4.90048 v 9.9007 h 4.90048 z m 0,20.00033 h -4.90048 V 246.95 h 4.90048 z"
       id="rect4643-2-5-2-0" />
    <path
       style="display:inline;fill:none;stroke:#ff0000;stroke-width:0.1;stroke-miterlimit:4;stroke-dasharray:none;stroke-opacity:1"
       d="m 175.47539,11.098022 v 4.903575 h -4.90048 V 26.10124 h 4.90048 v 9.900688 h -4.90048 v 10.099124 h 4.90048 v 9.900687 h -4.90048 v 10.099643 h 4.90048 v 9.900687 h -4.90048 V 86.10068 h 4.90048 v 4.90512 h 5.10615 v -4.90047 h 9.90069 v 4.90047 h 10.09964 v -4.90047 h 9.90068 V 16.002116 h -9.90068 v -4.900478 z m 5.10615,0.0036 h 9.90069 V 16.0021 h -9.90069 z"
       id="rect4866-5"
       inkscape:connector-curvature="0"
       sodipodi:nodetypes="cccccccccccccccccccccccccccccccccc" />
    <path
       id="path5016"
       transform="scale(0.26458333)"
       style="fill:none;stroke:#ff0000;stroke-width:0.37799263;stroke-miterlimit:4;stroke-dasharray:none;stroke-opacity:1"
       d="m 415.74805,-804.84961 c -110.21296,1.2e-4 -215.91184,43.7821 -293.84417,121.71442 C 43.971552,-605.20286 0.18957247,-499.50398 0.18945312,-389.29102 0.18957035,-279.07806 43.971549,-173.37918 121.90388,-95.446847 199.83621,-17.514518 305.53509,26.26746 415.74805,26.267578 525.96101,26.267459 631.65989,-17.514521 709.59222,-95.44685 c 77.93233,-77.93233 121.7143,-183.63121 121.71442,-293.84417 -1.2e-4,-110.21295 -43.7821,-215.91184 -121.71442,-293.84417 -77.93233,-77.93232 -183.63122,-121.7143 -293.84417,-121.71442 z m 0,398.7653 c 9.27456,-1.5e-4 16.79311,7.51841 16.79297,16.79297 1.4e-4,9.27456 -7.51841,16.79311 -16.79297,16.79297 -9.27456,1.4e-4 -16.79311,-7.51841 -16.79297,-16.79297 -1.4e-4,-9.27456 7.51841,-16.79312 16.79297,-16.79297 z M 302.54883,-540.28222 v 18.5215 h 37.41992 v -18.5215 z m 75.58985,0 v 18.5215 h 37.41993 v -18.5215 z m 75.5918,0 v 18.5215 h 37.41993 v -18.5215 z m 75.59179,0 v 18.5215 h 37.41994 v -18.5215 z m 75.58984,0 v 18.5215 h 37.41993 v -18.5215 z m 75.5918,0 v 18.5215 h 37.41993 v -18.5215 z m 75.5879,0 v 18.5215 h 18.89844 v 37.41989 h 18.52146 v -37.41989 -18.5215 z m -491.334,18.14256 v 37.41993 h 18.52149 v -37.41993 z m 0,75.5918 v 37.41993 h 18.52149 v -37.41993 z m 510.23244,0.37893 v 37.4199 h 18.52146 v -37.4199 z m -510.23244,75.21288 v 37.41992 h 18.52149 v -37.41992 z m 510.23244,0.37891 v 37.41992 h 18.52146 v -37.41992 z m -510.23244,75.21094 v 37.41992 h 18.52149 v -37.41992 z m 510.23244,0.3789 v 37.41992 h 18.52146 v -37.41992 z m -472.44142,38.16796 v 18.52149 h 37.41992 v -18.52149 z m 75.58985,0 v 18.52149 h 37.41993 v -18.52149 z m 75.5918,0 v 18.52149 h 37.41993 v -18.52149 z m 75.59179,0 v 18.52149 h 37.41994 v -18.52149 z m 75.58984,0 v 18.52149 h 37.41993 v -18.52149 z m 75.5918,0 v 18.52149 h 37.41993 v -18.52149 z m 75.5879,0 v 18.52149 h 37.4199 v -18.52149 z" />
    <path
       id="ellipse5018"
       style="fill:none;stroke:#ff0000;stroke-width:0.1;stroke-miterlimit:4;stroke-dasharray:none;stroke-opacity:1"
       d="M 104.44307,247 A 4.4430718,4.4430723 0 0 1 100,251.44307 4.4430718,4.4430723 0 0 1 95.556928,247 4.4430718,4.4430723 0 0 1 100,242.55693 4.4430718,4.4430723 0 0 1 104.44307,247 Z M 19.999813,225.61 a 1.3899449,1.3899449 0 0 0 -1.38958,1.39009 1.3899449,1.3899449 0 0 0 1.38958,1.3901 1.3899449,1.3899449 0 0 0 1.390096,-1.3901 1.3899449,1.3899449 0 0 0 -1.390096,-1.39009 z m 40.00014,0 a 1.3899449,1.3899449 0 0 0 -1.390094,1.39009 1.3899449,1.3899449 0 0 0 1.390094,1.3901 1.3899449,1.3899449 0 0 0 1.390097,-1.3901 A 1.3899449,1.3899449 0 0 0 59.999953,225.61 Z M 40.20013,234.40171 A 12.398333,12.398331 0 0 0 27.801919,246.79992 12.398333,12.398331 0 0 0 40.20013,259.19813 12.398333,12.398331 0 0 0 52.598341,246.79992 12.398333,12.398331 0 0 0 40.20013,234.40171 Z m -20.200317,31.20844 a 1.3899449,1.3899449 0 0 0 -1.38958,1.3901 1.3899449,1.3899449 0 0 0 1.38958,1.38956 1.3899449,1.3899449 0 0 0 1.390096,-1.38956 1.3899449,1.3899449 0 0 0 -1.390096,-1.3901 z m 40.00014,0 a 1.3899449,1.3899449 0 0 0 -1.390094,1.3901 1.3899449,1.3899449 0 0 0 1.390094,1.38956 1.3899449,1.3899449 0 0 0 1.390097,-1.38956 1.3899449,1.3899449 0 0 0 -1.390097,-1.3901 z M 9.9502969,197.04999 v 4.90047 H 0.05012614 v 5.0984 H 4.9506023 v 9.90069 H 0.05012614 v 10.09964 H 4.9506023 v 9.90068 H 0.05012614 v 10.09965 H 4.9506023 v 9.90068 H 0.05012614 v 10.09913 H 4.9506023 v 9.90068 H 0.05012614 v 10.09965 H 4.9506023 v 5.0002 h 4.9996946 v 4.89998 H 20.049422 v -4.89998 h 9.900689 v 4.89998 h 10.09964 v -4.89998 h 9.900687 v 4.89998 h 10.099643 v -4.89998 h 9.900687 v 4.89998 h 10.099125 v -4.89998 h 9.900687 v 4.89998 h 10.09964 v -4.89998 h 9.90069 v 4.89998 h 10.09861 v -4.89998 h 9.90069 v 4.89998 h 5.09891 v -9.79993 h 4.90048 v -10.09965 h -4.90048 v -9.90068 h 4.90048 v -10.09912 h -4.90048 v -9.90069 h 4.90048 v -10.09964 h -4.90048 v -9.90069 h 4.90048 V 217.0498 h -4.90048 v -9.90069 h 4.90048 v -10.09912 h -4.90048 -5.09891 v 4.90047 h -9.90069 v -4.90047 h -10.09861 v 4.90047 h -9.90069 v -4.90047 H 89.95058 v 4.90047 h -9.900687 v -4.90047 H 69.950768 v 4.90047 h -9.900687 v -4.90047 H 49.950438 v 4.90047 h -9.900687 v -4.90047 h -10.09964 v 4.90047 h -9.900689 v -4.90047 z" />
    <path
       inkscape:connector-curvature="0"
       style="display:inline;fill:none;stroke:#000000;stroke-width:0.09927534;stroke-miterlimit:4;stroke-dasharray:none;stroke-opacity:1"
       d="m 26.487966,310.91711 v 4.90048 h 9.900689 v -4.90048 z m 19.999815,0 v 4.90048 h 9.900688 v -4.90048 z m 20.000331,0 v 4.90048 H 76.3888 v -4.90048 z m 20.000331,0 v 4.90048 h 9.900692 v -4.90048 z m 19.999807,0 v 4.90048 h 9.90069 v -4.90048 z m 20.00033,0 v 4.90048 h 9.90068 v -4.90048 z m 19.99929,0 v 4.90048 h 9.90069 v -4.90048 z m 19.99981,0 v 4.90048 h 9.90069 v -4.90048 z m 20.00033,0 v 4.90048 h 9.90069 v -4.90048 z m 20.00033,0 v 4.90048 h 9.90069 v -4.90048 z m 19.99981,0 v 4.90048 h 9.90069 v -4.90048 z m 20.00033,0 v 4.90048 h 9.90069 v -4.90048 z"
       id="rect4643-2-5-6" />
    <path
       style="fill:none;stroke:#000000;stroke-width:0.32503939;stroke-miterlimit:4;stroke-dasharray:none;stroke-opacity:1"
       d="M 0.16210938 -993.85352 L 0.16210938 -993.81836 A 75.401418 75.401418 0 0 0 0 -993.82617 A 75.401418 75.401418 0 0 0 -75.402344 -918.42578 A 75.401418 75.401418 0 0 0 0 -843.02344 A 75.401418 75.401418 0 0 0 0.16210938 -843.0293 L 0.16210938 -842.99609 L 1133.6953 -842.99609 L 1133.6953 -843.03125 A 75.401418 75.401418 0 0 0 1133.8574 -843.02344 A 75.401418 75.401418 0 0 0 1209.2598 -918.42578 A 75.401418 75.401418 0 0 0 1133.8574 -993.82617 A 75.401418 75.401418 0 0 0 1133.6953 -993.82031 L 1133.6953 -993.85352 L 0.16210938 -993.85352 z M 0 -956.02344 A 37.598751 37.598754 0 0 1 37.599609 -918.42578 A 37.598751 37.598754 0 0 1 0 -880.82617 A 37.598751 37.598754 0 0 1 -37.599609 -918.42578 A 37.598751 37.598754 0 0 1 0 -956.02344 z M 1133.8574 -956.02344 A 37.598751 37.598754 0 0 1 1171.457 -918.42578 A 37.598751 37.598754 0 0 1 1133.8574 -880.82617 A 37.598751 37.598754 0 0 1 1096.2598 -918.42578 A 37.598751 37.598754 0 0 1 1133.8574 -956.02344 z "
       transform="scale(0.26458333)"
       id="rect5151" />
    <path
       style="display:inline;fill:none;stroke:#ff0000;stroke-width:0.32503939;stroke-miterlimit:4;stroke-dasharray:none;stroke-opacity:1"
       d="M 1.0566406 -1181.2852 L 1.0566406 -1181.252 A 75.40142 75.40142 0 0 0 0.89453125 -1181.2598 A 75.40142 75.40142 0 0 0 -74.507812 -1105.8594 A 75.40142 75.40142 0 0 0 0.89453125 -1030.457 A 75.40142 75.40142 0 0 0 1.0566406 -1030.4648 L 1.0566406 -1030.4297 L 1134.5898 -1030.4297 L 1134.5898 -1030.4648 A 75.40142 75.40142 0 0 0 1134.752 -1030.457 A 75.40142 75.40142 0 0 0 1210.1543 -1105.8594 A 75.40142 75.40142 0 0 0 1134.752 -1181.2598 A 75.40142 75.40142 0 0 0 1134.5898 -1181.252 L 1134.5898 -1181.2852 L 1.0566406 -1181.2852 z M 0.89453125 -1143.4551 A 37.598751 37.598754 0 0 1 38.494141 -1105.8574 A 37.598751 37.598754 0 0 1 0.89453125 -1068.2578 A 37.598751 37.598754 0 0 1 -36.705078 -1105.8574 A 37.598751 37.598754 0 0 1 0.89453125 -1143.4551 z M 1134.752 -1143.4551 A 37.598751 37.598754 0 0 1 1172.3516 -1105.8574 A 37.598751 37.598754 0 0 1 1134.752 -1068.2578 A 37.598751 37.598754 0 0 1 1097.1543 -1105.8574 A 37.598751 37.598754 0 0 1 1134.752 -1143.4551 z M 151.36914 -1126.1113 L 169.89062 -1126.1113 L 169.89062 -1088.6914 L 151.36914 -1088.6914 L 151.36914 -1126.1113 z M 302.55078 -1126.1113 L 321.07227 -1126.1113 L 321.07227 -1088.6914 L 302.55078 -1088.6914 L 302.55078 -1126.1113 z M 453.73047 -1126.1113 L 472.25391 -1126.1113 L 472.25195 -1088.6914 L 453.73047 -1088.6914 L 453.73047 -1126.1113 z M 604.91211 -1126.1113 L 623.43359 -1126.1113 L 623.43359 -1088.6914 L 604.91211 -1088.6914 L 604.91211 -1126.1113 z M 756.09375 -1126.1113 L 774.61523 -1126.1113 L 774.61523 -1088.6914 L 756.09375 -1088.6914 L 756.09375 -1126.1113 z M 907.27344 -1126.1113 L 925.79688 -1126.1113 L 925.79492 -1088.6914 L 907.27344 -1088.6914 L 907.27344 -1126.1113 z "
       transform="scale(0.26458333)"
       id="rect5151-3" />
    <path
       style="display:inline;fill:none;stroke:#000000;stroke-width:0.37521389;stroke-miterlimit:4;stroke-dasharray:none;stroke-opacity:1"
       d="M 151.36914 -937.13477 L 151.36914 -899.71484 L 169.89062 -899.71484 L 169.89062 -937.13477 L 151.36914 -937.13477 z M 302.55078 -937.13477 L 302.55078 -899.71484 L 321.07227 -899.71484 L 321.07227 -937.13477 L 302.55078 -937.13477 z M 453.73047 -937.13477 L 453.73047 -899.71484 L 472.25195 -899.71484 L 472.25391 -937.13477 L 453.73047 -937.13477 z M 604.91211 -937.13477 L 604.91211 -899.71484 L 623.43359 -899.71484 L 623.43359 -937.13477 L 604.91211 -937.13477 z M 756.09375 -937.13477 L 756.09375 -899.71484 L 774.61523 -899.71484 L 774.61523 -937.13477 L 756.09375 -937.13477 z M 907.27344 -937.13477 L 907.27344 -899.71484 L 925.79492 -899.71484 L 925.79688 -937.13477 L 907.27344 -937.13477 z "
       transform="scale(0.26458333)"
       id="rect4643-2-5-2-0-9" />
    <path
       inkscape:connector-curvature="0"
       style="display:inline;fill:none;stroke:#000000;stroke-width:0.09927534;stroke-miterlimit:4;stroke-dasharray:none;stroke-opacity:1"
       d="m 38.988224,-336.39463 v 9.90069 h 4.900475 v -9.90069 z m 40.000144,0 v 9.90069 h 4.900477 v -9.90069 z m 39.999622,0 v 9.90069 h 4.90047 l 5.3e-4,-9.90069 z m 40.00014,0 v 9.90069 h 4.90047 v -9.90069 z m 40.00014,0 v 9.90069 h 4.90048 v -9.90069 z m 39.99963,0 v 9.90069 h 4.90047 l 5.3e-4,-9.90069 z"
       id="rect4643-2-5-2-0-9-9" />
    <path
       style="display:inline;fill:none;stroke:#000000;stroke-width:0.09927534;stroke-miterlimit:4;stroke-dasharray:none;stroke-opacity:1"
       d="m 244.01626,-141.6885 v 4.90048 h 9.90069 v -4.90048 z m 19.99981,0 v 4.90048 h 9.90069 v -4.90048 z m 20.00033,0 v 4.90048 h 9.90069 v -4.90048 z m 20.00033,0 v 4.90048 h 9.90069 v -4.90048 z m 19.99981,0 v 4.90048 h 9.90069 v -4.90048 z m 20.00033,0 v 4.90048 h 9.9007 v -4.90048 z m 19.99931,0 v 4.90048 h 5.00021 v 9.90068 h 4.90047 v -9.90068 -4.90048 z m -129.99879,4.80022 v 9.90069 h 4.90047 v -9.90069 z m 0,20.00033 v 9.90069 h 4.90047 v -9.90069 z m 134.999,0.10026 v 9.90068 h 4.90047 v -9.90068 z m -134.999,19.900084 v 9.900683 h 4.90047 v -9.900683 z m 134.999,0.10025 v 9.900686 h 4.90047 v -9.900686 z m -134.999,19.89956 v 9.900688 h 4.90047 v -9.900688 z m 134.999,0.100251 v 9.900687 h 4.90047 v -9.900687 z m -125.00013,10.098609 v 4.900475 h 9.90069 v -4.900475 z m 19.99981,0 v 4.900475 h 9.90069 v -4.900475 z m 20.00033,0 v 4.900475 h 9.90069 v -4.900475 z m 20.00033,0 v 4.900475 h 9.90069 v -4.900475 z m 19.99981,0 v 4.900475 h 9.90069 v -4.900475 z m 20.00033,0 v 4.900475 h 9.9007 v -4.900475 z m 19.99931,0 v 4.900475 h 9.90068 v -4.900475 z"
       id="rect4643-2-5-4"
       inkscape:connector-curvature="0" />
    <path
       style="display:inline;fill:none;stroke:#000000;stroke-width:0.20333582;stroke-miterlimit:4;stroke-dasharray:none;stroke-opacity:1"
       d="m 275.34263,230.83151 a 1.3899449,1.3899449 0 0 0 -1.38958,1.39009 1.3899449,1.3899449 0 0 0 1.38958,1.3901 1.3899449,1.3899449 0 0 0 1.39009,-1.3901 1.3899449,1.3899449 0 0 0 -1.39009,-1.39009 z m 40.00014,0 a 1.3899449,1.3899449 0 0 0 -1.39009,1.39009 1.3899449,1.3899449 0 0 0 1.39009,1.3901 1.3899449,1.3899449 0 0 0 1.3901,-1.3901 1.3899449,1.3899449 0 0 0 -1.3901,-1.39009 z m -19.79982,8.79171 a 12.398333,12.398332 0 0 0 -12.39822,12.39821 12.398333,12.398332 0 0 0 12.39822,12.39821 12.398333,12.398332 0 0 0 12.39821,-12.39821 12.398333,12.398332 0 0 0 -12.39821,-12.39821 z m -20.20032,31.20844 a 1.3899449,1.3899449 0 0 0 -1.38958,1.3901 1.3899449,1.3899449 0 0 0 1.38958,1.38956 1.3899449,1.3899449 0 0 0 1.39009,-1.38956 1.3899449,1.3899449 0 0 0 -1.39009,-1.3901 z m 40.00014,0 a 1.3899449,1.3899449 0 0 0 -1.39009,1.3901 1.3899449,1.3899449 0 0 0 1.39009,1.38956 1.3899449,1.3899449 0 0 0 1.3901,-1.38956 1.3899449,1.3899449 0 0 0 -1.3901,-1.3901 z"
       id="path4520-3-4"
       inkscape:connector-curvature="0" />
    <ellipse
       ry="4.4430723"
       rx="4.4430718"
       cy="252.22151"
       cx="355.3428"
       id="ellipse5018-2"
       style="display:inline;fill:none;stroke:#000000;stroke-width:0.11385551;stroke-miterlimit:4;stroke-dasharray:none;stroke-opacity:1" />
  </g>
  <g
     inkscape:groupmode="layer"
     id="layer2"
     inkscape:label="Layer 2">
    <path
       style="fill:none;stroke:#000000;stroke-width:0.1348594;stroke-linecap:butt;stroke-linejoin:miter;stroke-miterlimit:4;stroke-dasharray:none;stroke-opacity:1"
       d="M 100.05,-41.2143 V 297"
       id="path4523"
       inkscape:connector-curvature="0" />
    <path
       style="fill:none;stroke:#000000;stroke-width:0.1;stroke-linecap:butt;stroke-linejoin:miter;stroke-miterlimit:4;stroke-dasharray:none;stroke-opacity:1"
       d="M -61.988093,246.95 H 247.19642"
       id="path4525"
       inkscape:connector-curvature="0" />
    <path
       style="fill:none;stroke:#000000;stroke-width:0.1;stroke-linecap:butt;stroke-linejoin:miter;stroke-miterlimit:4;stroke-dasharray:none;stroke-opacity:1"
       d="M -77.458696,136.95 H 231.72582"
       id="path4525-7"
       inkscape:connector-curvature="0" />
    <path
       style="fill:none;stroke:#000000;stroke-width:0.1;stroke-linecap:butt;stroke-linejoin:miter;stroke-miterlimit:4;stroke-dasharray:none;stroke-opacity:1"
       d="M -25.755623,-103.05 H 283.4289"
       id="path4525-7-5"
       inkscape:connector-curvature="0" />
    <text
       xml:space="preserve"
       style="font-style:normal;font-weight:normal;font-size:10.58333302px;line-height:1.25;font-family:sans-serif;letter-spacing:0px;word-spacing:0px;display:inline;fill:#000000;fill-opacity:1;stroke:none;stroke-width:0.26458332"
       x="178.62434"
       y="230.17963"
       id="text5390"><tspan
         sodipodi:role="line"
         x="178.62434"
         y="230.17963"
         style="stroke-width:0.26458332"
         id="tspan5392">3pcs</tspan></text>
    <text
       xml:space="preserve"
       style="font-style:normal;font-weight:normal;font-size:10.58333302px;line-height:1.25;font-family:sans-serif;letter-spacing:0px;word-spacing:0px;display:inline;fill:#000000;fill-opacity:1;stroke:none;stroke-width:0.26458332"
       x="160.64816"
       y="134.60927"
       id="text5390-6"><tspan
         sodipodi:role="line"
         x="160.64816"
         y="134.60927"
         style="stroke-width:0.26458332"
         id="tspan5416">3pcs</tspan></text>
    <text
       xml:space="preserve"
       style="font-style:normal;font-weight:normal;font-size:10.58333302px;line-height:1.25;font-family:sans-serif;letter-spacing:0px;word-spacing:0px;display:inline;fill:#000000;fill-opacity:1;stroke:none;stroke-width:0.26458332"
       x="146.42686"
       y="103.29624"
       id="text5390-6-1"><tspan
         sodipodi:role="line"
         x="146.42686"
         y="103.29624"
         style="stroke-width:0.26458332"
         id="tspan5416-3">3pcs</tspan></text>
    <text
       xml:space="preserve"
       style="font-style:normal;font-weight:normal;font-size:10.58333302px;line-height:1.25;font-family:sans-serif;letter-spacing:0px;word-spacing:0px;display:inline;fill:#000000;fill-opacity:1;stroke:none;stroke-width:0.26458332"
       x="326.79813"
       y="-290.20142"
       id="text5390-6-1-7"><tspan
         sodipodi:role="line"
         x="326.79813"
         y="-290.20142"
         style="stroke-width:0.26458332"
         id="tspan5474">4pcs</tspan></text>
  </g>
</svg>
